# xmcd CD database file
#
# Track frame offsets:
#	150
#	18355
#	43012
#	59575
#	74255
#	100135
#	119565
#	148995
#	169087
#	190860
#	207970
#	222535
#	245045
#
# Disc length: 3502 seconds
#
# Revision: 4
# Processed by: cddbd v1.5PL3 Copyright (c) Steve Scherf et al.
# Submitted via: CDex 1.50
#
DISCID=d00dac0d
DTITLE=Omnibus - 琉球詩歌
DYEAR=2003
DGENRE=Country
TTITLE0=永遠に響かせたなら
TTITLE1=風のあやぐ
TTITLE2=涙そうそう
TTITLE3=てぃんさぐぬ花
TTITLE4=風の道
TTITLE5=童神
TTITLE6=特別な夏
TTITLE7=宵の島影
TTITLE8=語やびら
TTITLE9=風のどなん
TTITLE10=てぃんぐさぬ花(English version)
TTITLE11=安里屋ゆんた
TTITLE12=芭蕉布
EXTD=YEAR: 2003
EXTT0=
EXTT1=
EXTT2=
EXTT3=
EXTT4=
EXTT5=
EXTT6=
EXTT7=
EXTT8=
EXTT9=
EXTT10=
EXTT11=
EXTT12=
PLAYORDER=
